<?xml version="1.0" standalone="no"?>
<!DOCTYPE svg PUBLIC "-//W3C//DTD SVG 20010904//EN"
 "http://www.w3.org/TR/2001/REC-SVG-20010904/DTD/svg10.dtd">
<svg version="1.0" xmlns="http://www.w3.org/2000/svg"
 width="339.000000pt" height="305.000000pt" viewBox="0 0 339.000000 305.000000"
 preserveAspectRatio="xMidYMid meet">
<g transform="translate(0.000000,305.000000) scale(0.100000,-0.100000)"
fill="#000000" stroke="none">
<path d="M0 1525 m1403 832 c-4 -7 -35 -50 -67 -95 l-60 -82 -138 0 -138 0 0 -430 c0
-236 3 -430 8 -429 4 0 59 72 122 161 63 88 142 197 175 242 33 45 152 209
264 364 l205 282 424 0 424 0 -48 -67 c-26 -38 -71 -99 -99 -138 -95 -128
-422 -580 -435 -602 -17 -26 -42 12 296 -453 150 -206 273 -379 273 -383 1 -5
-187 -8 -416 -8 -385 1 -419 2 -434 18 -9 10 -75 100 -148 201 l-132 183 37
52 c21 28 48 65 61 80 l22 28 48 -67 c27 -37 89 -121 138 -187 l90 -120 180 2
c98 1 180 3 182 5 3 2 -68 102 -330 463 -64 88 -117 163 -117 166 0 3 101 144
225 314 123 169 225 311 225 316 0 4 -83 7 -184 7 l-184 0 -143 -197 c-79
-109 -173 -238 -209 -288 -37 -49 -133 -182 -215 -295 -332 -458 -487 -670
-491 -670 -2 0 -4 369 -4 820 l0 820 300 0 c245 0 300 -2 293 -13z"/>
</g>
</svg>
